<?xml version="1.0" encoding="UTF-8" standalone="no"?>
<!DOCTYPE svg PUBLIC "-//W3C//DTD SVG 1.1//EN" "http://www.w3.org/Graphics/SVG/1.1/DTD/svg11.dtd">
<svg width="100%" height="100%" viewBox="0 0 574 404" version="1.1" xmlns="http://www.w3.org/2000/svg" xmlns:xlink="http://www.w3.org/1999/xlink" xml:space="preserve" xmlns:serif="http://www.serif.com/" style="fill-rule:evenodd;clip-rule:evenodd;stroke-linejoin:round;stroke-miterlimit:2;">
    <g transform="matrix(1,0,0,1,-1,-54.2034)">
        <g id="bg" transform="matrix(1.05102,0,0,1.05102,-14.6949,-13.0622)">
            <path d="M26.345,387.917C32.626,411.567 51.132,430.193 74.629,436.514C117.219,448 288,448 288,448C288,448 458.78,448 501.371,436.514C524.868,430.192 543.374,411.567 549.655,387.917C561.067,345.05 561.067,255.612 561.067,255.612C561.067,255.612 561.067,166.174 549.655,123.307C543.374,99.657 524.868,81.807 501.371,75.486C458.78,64 288,64 288,64C288,64 117.22,64 74.629,75.486C51.132,81.807 32.626,99.657 26.345,123.307C14.933,166.174 14.933,255.612 14.933,255.612C14.933,255.612 14.933,345.05 26.345,387.917Z" style="fill:rgb(255,0,0);fill-rule:nonzero;"/>
            <path d="M26.345,387.917C32.626,411.567 51.132,430.193 74.629,436.514C117.219,448 288,448 288,448C288,448 458.78,448 501.371,436.514C524.868,430.192 543.374,411.567 549.655,387.917C561.067,345.05 561.067,255.612 561.067,255.612C561.067,255.612 561.067,166.174 549.655,123.307C543.374,99.657 524.868,81.807 501.371,75.486C458.78,64 288,64 288,64C288,64 117.22,64 74.629,75.486C51.132,81.807 32.626,99.657 26.345,123.307C14.933,166.174 14.933,255.612 14.933,255.612C14.933,255.612 14.933,345.05 26.345,387.917ZM55.771,380.102C55.77,380.096 55.768,380.09 55.767,380.084C45.035,339.772 45.379,255.644 45.379,255.612C45.379,255.58 45.035,171.452 55.767,131.14C55.768,131.134 55.77,131.128 55.771,131.122C59.236,118.079 69.579,108.373 82.538,104.887C82.544,104.886 82.551,104.884 82.557,104.882C123.553,93.826 287.954,94.446 288,94.446C288.046,94.446 452.447,93.826 493.443,104.882C493.449,104.884 493.456,104.886 493.462,104.887C506.421,108.373 516.764,118.079 520.229,131.122C520.23,131.128 520.232,131.134 520.233,131.14C530.965,171.452 530.621,255.58 530.621,255.612C530.621,255.644 530.965,339.772 520.233,380.084C520.232,380.09 520.23,380.096 520.229,380.102C516.742,393.23 506.504,403.604 493.461,407.113C493.455,407.115 493.449,407.116 493.443,407.118C452.447,418.174 288.046,417.554 288,417.554C287.954,417.554 123.552,418.174 82.557,407.118C82.551,407.116 82.544,407.114 82.538,407.113C69.495,403.604 59.258,393.23 55.771,380.102Z" style="fill:white;"/>
        </g>
        <path id="icon" d="M311.145,337.591L311.145,175.185L453.884,256.39L311.145,337.591ZM264.855,174.409L264.855,336.815L122.116,255.61L264.855,174.409Z" style="fill:white;fill-rule:nonzero;"/>
    </g>
</svg>
